<svg xmlns="http://www.w3.org/2000/svg" width="1000" height="620" viewBox="0 0 1000 620" font-family="Roboto, -apple-system, system-ui, sans-serif" role="img" aria-labelledby="kn-title kn-desc"><title id="kn-title">Knee detection: where the curve bends</title><desc id="kn-desc">Knee detection: where the curve bends. The method flags the knee at x = 0.342</desc><style>@media (prefers-color-scheme: dark){[fill="#FFFFFF"]{fill:#000;}[fill="#1D1D1F"]{fill:#F5F5F7;}[fill="#6E6E73"]{fill:#98989D;}[stroke="#E5E5EA"]{stroke:#2C2C2E;}}</style><rect width="1000" height="620" fill="#FFFFFF"/><text x="96" y="72" font-size="29" font-weight="700" fill="#1D1D1F">Knee detection: where the curve bends</text><text x="96" y="106" font-size="17" fill="#6E6E73">The method flags the knee at x = 0.342</text><line x1="96.0" y1="524.0" x2="948.0" y2="524.0" stroke="#E5E5EA" stroke-width="1"/><text x="82.0" y="529.0" text-anchor="end" font-family="Roboto Mono, ui-monospace, SFMono-Regular, monospace" font-size="13" fill="#6E6E73">0.00</text><line x1="96.0" y1="440.0" x2="948.0" y2="440.0" stroke="#E5E5EA" stroke-width="1"/><text x="82.0" y="445.0" text-anchor="end" font-family="Roboto Mono, ui-monospace, SFMono-Regular, monospace" font-size="13" fill="#6E6E73">0.25</text><line x1="96.0" y1="356.0" x2="948.0" y2="356.0" stroke="#E5E5EA" stroke-width="1"/><text x="82.0" y="361.0" text-anchor="end" font-family="Roboto Mono, ui-monospace, SFMono-Regular, monospace" font-size="13" fill="#6E6E73">0.50</text><line x1="96.0" y1="272.0" x2="948.0" y2="272.0" stroke="#E5E5EA" stroke-width="1"/><text x="82.0" y="277.0" text-anchor="end" font-family="Roboto Mono, ui-monospace, SFMono-Regular, monospace" font-size="13" fill="#6E6E73">0.75</text><line x1="96.0" y1="188.0" x2="948.0" y2="188.0" stroke="#E5E5EA" stroke-width="1"/><text x="82.0" y="193.0" text-anchor="end" font-family="Roboto Mono, ui-monospace, SFMono-Regular, monospace" font-size="13" fill="#6E6E73">1.00</text><line x1="96.0" y1="524.0" x2="948.0" y2="524.0" stroke="#1D1D1F" stroke-width="1.5"/><text x="96.0" y="550.0" text-anchor="middle" font-family="Roboto Mono, ui-monospace, SFMono-Regular, monospace" font-size="13" fill="#1D1D1F">0.00</text><text x="309.0" y="550.0" text-anchor="middle" font-family="Roboto Mono, ui-monospace, SFMono-Regular, monospace" font-size="13" fill="#1D1D1F">0.25</text><text x="522.0" y="550.0" text-anchor="middle" font-family="Roboto Mono, ui-monospace, SFMono-Regular, monospace" font-size="13" fill="#1D1D1F">0.50</text><text x="735.0" y="550.0" text-anchor="middle" font-family="Roboto Mono, ui-monospace, SFMono-Regular, monospace" font-size="13" fill="#1D1D1F">0.75</text><text x="948.0" y="550.0" text-anchor="middle" font-family="Roboto Mono, ui-monospace, SFMono-Regular, monospace" font-size="13" fill="#1D1D1F">1.00</text><text x="522.0" y="580.0" text-anchor="middle" font-size="15" fill="#1D1D1F">x (normalized)</text><text x="30" y="356.0" text-anchor="middle" font-size="15" fill="#1D1D1F" transform="rotate(-90 30 356.0)">y (scaled)</text><circle cx="96.0" cy="524.0" r="2.6" fill="#8E8E93" opacity="0.55"/><circle cx="106.8" cy="524.0" r="2.6" fill="#8E8E93" opacity="0.55"/><circle cx="117.6" cy="524.0" r="2.6" fill="#8E8E93" opacity="0.55"/><circle cx="128.4" cy="524.0" r="2.6" fill="#8E8E93" opacity="0.55"/><circle cx="139.1" cy="522.4" r="2.6" fill="#8E8E93" opacity="0.55"/><circle cx="149.9" cy="511.3" r="2.6" fill="#8E8E93" opacity="0.55"/><circle cx="160.7" cy="504.5" r="2.6" fill="#8E8E93" opacity="0.55"/><circle cx="171.5" cy="480.8" r="2.6" fill="#8E8E93" opacity="0.55"/><circle cx="182.3" cy="467.8" r="2.6" fill="#8E8E93" opacity="0.55"/><circle cx="193.1" cy="453.7" r="2.6" fill="#8E8E93" opacity="0.55"/><circle cx="203.8" cy="441.1" r="2.6" fill="#8E8E93" opacity="0.55"/><circle cx="214.6" cy="422.2" r="2.6" fill="#8E8E93" opacity="0.55"/><circle cx="225.4" cy="417.8" r="2.6" fill="#8E8E93" opacity="0.55"/><circle cx="236.2" cy="398.4" r="2.6" fill="#8E8E93" opacity="0.55"/><circle cx="247.0" cy="386.3" r="2.6" fill="#8E8E93" opacity="0.55"/><circle cx="257.8" cy="362.8" r="2.6" fill="#8E8E93" opacity="0.55"/><circle cx="268.6" cy="352.6" r="2.6" fill="#8E8E93" opacity="0.55"/><circle cx="279.3" cy="340.5" r="2.6" fill="#8E8E93" opacity="0.55"/><circle cx="290.1" cy="329.8" r="2.6" fill="#8E8E93" opacity="0.55"/><circle cx="300.9" cy="310.8" r="2.6" fill="#8E8E93" opacity="0.55"/><circle cx="311.7" cy="293.9" r="2.6" fill="#8E8E93" opacity="0.55"/><circle cx="322.5" cy="281.5" r="2.6" fill="#8E8E93" opacity="0.55"/><circle cx="333.3" cy="254.1" r="2.6" fill="#8E8E93" opacity="0.55"/><circle cx="344.1" cy="241.7" r="2.6" fill="#8E8E93" opacity="0.55"/><circle cx="354.8" cy="261.1" r="2.6" fill="#8E8E93" opacity="0.55"/><circle cx="365.6" cy="253.5" r="2.6" fill="#8E8E93" opacity="0.55"/><circle cx="376.4" cy="238.6" r="2.6" fill="#8E8E93" opacity="0.55"/><circle cx="387.2" cy="239.7" r="2.6" fill="#8E8E93" opacity="0.55"/><circle cx="398.0" cy="233.5" r="2.6" fill="#8E8E93" opacity="0.55"/><circle cx="408.8" cy="232.5" r="2.6" fill="#8E8E93" opacity="0.55"/><circle cx="419.5" cy="216.2" r="2.6" fill="#8E8E93" opacity="0.55"/><circle cx="430.3" cy="241.3" r="2.6" fill="#8E8E93" opacity="0.55"/><circle cx="441.1" cy="234.4" r="2.6" fill="#8E8E93" opacity="0.55"/><circle cx="451.9" cy="213.9" r="2.6" fill="#8E8E93" opacity="0.55"/><circle cx="462.7" cy="224.2" r="2.6" fill="#8E8E93" opacity="0.55"/><circle cx="473.5" cy="223.0" r="2.6" fill="#8E8E93" opacity="0.55"/><circle cx="484.3" cy="231.6" r="2.6" fill="#8E8E93" opacity="0.55"/><circle cx="495.0" cy="239.7" r="2.6" fill="#8E8E93" opacity="0.55"/><circle cx="505.8" cy="224.1" r="2.6" fill="#8E8E93" opacity="0.55"/><circle cx="516.6" cy="223.6" r="2.6" fill="#8E8E93" opacity="0.55"/><circle cx="527.4" cy="233.4" r="2.6" fill="#8E8E93" opacity="0.55"/><circle cx="538.2" cy="228.0" r="2.6" fill="#8E8E93" opacity="0.55"/><circle cx="549.0" cy="222.1" r="2.6" fill="#8E8E93" opacity="0.55"/><circle cx="559.7" cy="228.2" r="2.6" fill="#8E8E93" opacity="0.55"/><circle cx="570.5" cy="220.3" r="2.6" fill="#8E8E93" opacity="0.55"/><circle cx="581.3" cy="217.8" r="2.6" fill="#8E8E93" opacity="0.55"/><circle cx="592.1" cy="217.3" r="2.6" fill="#8E8E93" opacity="0.55"/><circle cx="602.9" cy="220.7" r="2.6" fill="#8E8E93" opacity="0.55"/><circle cx="613.7" cy="210.8" r="2.6" fill="#8E8E93" opacity="0.55"/><circle cx="624.5" cy="207.5" r="2.6" fill="#8E8E93" opacity="0.55"/><circle cx="635.2" cy="211.1" r="2.6" fill="#8E8E93" opacity="0.55"/><circle cx="646.0" cy="219.3" r="2.6" fill="#8E8E93" opacity="0.55"/><circle cx="656.8" cy="205.8" r="2.6" fill="#8E8E93" opacity="0.55"/><circle cx="667.6" cy="214.8" r="2.6" fill="#8E8E93" opacity="0.55"/><circle cx="678.4" cy="202.6" r="2.6" fill="#8E8E93" opacity="0.55"/><circle cx="689.2" cy="217.4" r="2.6" fill="#8E8E93" opacity="0.55"/><circle cx="699.9" cy="200.4" r="2.6" fill="#8E8E93" opacity="0.55"/><circle cx="710.7" cy="207.0" r="2.6" fill="#8E8E93" opacity="0.55"/><circle cx="721.5" cy="215.9" r="2.6" fill="#8E8E93" opacity="0.55"/><circle cx="732.3" cy="207.4" r="2.6" fill="#8E8E93" opacity="0.55"/><circle cx="743.1" cy="203.4" r="2.6" fill="#8E8E93" opacity="0.55"/><circle cx="753.9" cy="200.7" r="2.6" fill="#8E8E93" opacity="0.55"/><circle cx="764.7" cy="209.8" r="2.6" fill="#8E8E93" opacity="0.55"/><circle cx="775.4" cy="209.8" r="2.6" fill="#8E8E93" opacity="0.55"/><circle cx="786.2" cy="198.3" r="2.6" fill="#8E8E93" opacity="0.55"/><circle cx="797.0" cy="202.7" r="2.6" fill="#8E8E93" opacity="0.55"/><circle cx="807.8" cy="196.1" r="2.6" fill="#8E8E93" opacity="0.55"/><circle cx="818.6" cy="190.8" r="2.6" fill="#8E8E93" opacity="0.55"/><circle cx="829.4" cy="209.3" r="2.6" fill="#8E8E93" opacity="0.55"/><circle cx="840.2" cy="193.0" r="2.6" fill="#8E8E93" opacity="0.55"/><circle cx="850.9" cy="188.0" r="2.6" fill="#8E8E93" opacity="0.55"/><circle cx="861.7" cy="195.4" r="2.6" fill="#8E8E93" opacity="0.55"/><circle cx="872.5" cy="198.6" r="2.6" fill="#8E8E93" opacity="0.55"/><circle cx="883.3" cy="188.0" r="2.6" fill="#8E8E93" opacity="0.55"/><circle cx="894.1" cy="188.0" r="2.6" fill="#8E8E93" opacity="0.55"/><circle cx="904.9" cy="188.0" r="2.6" fill="#8E8E93" opacity="0.55"/><circle cx="915.6" cy="190.9" r="2.6" fill="#8E8E93" opacity="0.55"/><circle cx="926.4" cy="199.1" r="2.6" fill="#8E8E93" opacity="0.55"/><circle cx="937.2" cy="188.0" r="2.6" fill="#8E8E93" opacity="0.55"/><circle cx="948.0" cy="188.8" r="2.6" fill="#8E8E93" opacity="0.55"/><path d="M96,524 C97.8,524 103.2,524 106.8,523.9 C110.4,523.8 114,523.8 117.6,523.4 C121.2,523 124.8,522.6 128.4,521.5 C131.9,520.5 135.5,519.1 139.1,517.1 C142.7,515 146.3,512.4 149.9,509.1 C153.5,505.9 157.1,501.9 160.7,497.6 C164.3,493.4 167.9,488.4 171.5,483.6 C175.1,478.7 178.7,473.5 182.3,468.6 C185.9,463.7 189.5,458.8 193.1,454.1 C196.7,449.3 200.3,444.6 203.8,440 C207.4,435.4 211,431 214.6,426.5 C218.2,422 221.8,417.6 225.4,412.9 C229,408.3 232.6,403.5 236.2,398.5 C239.8,393.6 243.4,388.3 247,383.2 C250.6,378.1 254.2,372.9 257.8,368 C261.4,363 265,358.2 268.6,353.6 C272.2,348.9 275.7,344.5 279.3,340 C282.9,335.4 286.5,330.8 290.1,326 C293.7,321.1 297.3,316 300.9,310.8 C304.5,305.5 308.1,299.7 311.7,294.2 C315.3,288.8 318.9,283 322.5,278.1 C326.1,273.2 329.7,268.3 333.3,264.6 C336.9,260.9 340.5,258.2 344.1,256.1 C347.6,254 351.2,253.2 354.8,251.9 C358.4,250.6 362,249.7 365.6,248.3 C369.2,247 372.8,245.5 376.4,243.9 C380,242.3 383.6,240.4 387.2,238.8 C390.8,237.2 394.4,235.6 398,234.3 C401.6,233.1 405.2,232 408.8,231.3 C412.4,230.5 415.9,230.2 419.5,229.9 C423.1,229.6 426.7,229.8 430.3,229.4 C433.9,229.1 437.5,228.5 441.1,227.8 C444.7,227.1 448.3,225.8 451.9,225.4 C455.5,224.9 459.1,224.7 462.7,224.8 C466.3,225 469.9,225.7 473.5,226.4 C477.1,227.1 480.7,228.3 484.3,228.9 C487.8,229.5 491.4,230 495,230.1 C498.6,230.2 502.2,229.6 505.8,229.3 C509.4,229 513,228.6 516.6,228.3 C520.2,228.1 523.8,228.1 527.4,227.8 C531,227.6 534.6,227.4 538.2,227 C541.8,226.6 545.4,226.2 549,225.7 C552.6,225.1 556.2,224.4 559.7,223.8 C563.3,223.1 566.9,222.3 570.5,221.6 C574.1,220.9 577.7,220.3 581.3,219.6 C584.9,219 588.5,218.5 592.1,217.8 C595.7,217.1 599.3,216.4 602.9,215.7 C606.5,215 610.1,214.2 613.7,213.6 C617.3,213 620.9,212.3 624.5,212.1 C628.1,211.8 631.6,212 635.2,211.9 C638.8,211.9 642.4,211.9 646,211.8 C649.6,211.7 653.2,211.6 656.8,211.4 C660.4,211.1 664,210.7 667.6,210.3 C671.2,210 674.8,209.6 678.4,209.3 C682,209 685.6,208.8 689.2,208.6 C692.8,208.4 696.4,208.3 699.9,208.3 C703.5,208.2 707.1,208.3 710.7,208.4 C714.3,208.4 717.9,208.7 721.5,208.5 C725.1,208.3 728.7,207.8 732.3,207.4 C735.9,207 739.5,206.5 743.1,206.1 C746.7,205.8 750.3,205.6 753.9,205.5 C757.5,205.4 761.1,205.6 764.7,205.5 C768.3,205.4 771.8,205.3 775.4,204.8 C779,204.3 782.6,203.3 786.2,202.6 C789.8,201.8 793.4,201 797,200.3 C800.6,199.6 804.2,198.9 807.8,198.5 C811.4,198 815,197.9 818.6,197.7 C822.2,197.5 825.8,197.5 829.4,197.2 C833,196.8 836.6,196.3 840.2,195.8 C843.7,195.3 847.3,194.7 850.9,194.3 C854.5,194 858.1,193.9 861.7,193.6 C865.3,193.4 868.9,193.1 872.5,192.7 C876.1,192.3 879.7,191.7 883.3,191.2 C886.9,190.8 890.5,190.4 894.1,190.2 C897.7,190 901.3,190.1 904.9,190.3 C908.5,190.4 912.1,191 915.6,191.2 C919.2,191.5 922.8,191.7 926.4,191.7 C930,191.7 933.6,191.4 937.2,191.3 C940.8,191.2 946.2,191 948,190.9" fill="none" stroke="#007AFF" stroke-width="3" stroke-linecap="round" stroke-linejoin="round"/><rect x="387.2" y="182.0" width="32.4" height="342.0" fill="#FF3B30" fill-opacity="0.10"/><circle cx="387.2" cy="238.8" r="15" fill="#FF3B30" opacity="0.16"/><circle cx="387.2" cy="238.8" r="8" fill="#FFFFFF" stroke="#FF3B30" stroke-width="3"/><line x1="397.2" y1="228.8" x2="401.2" y2="212.0" stroke="#FF3B30" stroke-width="1.6"/><rect x="393.2" y="195.0" width="168" height="34" rx="17" fill="#FF3B30"/><text x="477.2" y="217.0" text-anchor="middle" font-family="Roboto Mono, ui-monospace, SFMono-Regular, monospace" font-size="15" font-weight="700" fill="#FFFFFF">Knee · x = 0.342</text><rect x="566" y="196" width="372" height="184" rx="16" fill="#F5F5F7" stroke="#E5E5EA" stroke-width="1"/><text x="586" y="226" font-size="14" font-weight="700" fill="#1D1D1F">Evidence</text><circle cx="592.0" cy="243.0" r="5" fill="#007AFF"/><text x="608.0" y="248.0" font-family="Roboto Mono, ui-monospace, SFMono-Regular, monospace" font-size="13" fill="#1D1D1F">detection probability: 98%</text><circle cx="592.0" cy="275.0" r="5" fill="#0051A8"/><text x="608.0" y="280.0" font-family="Roboto Mono, ui-monospace, SFMono-Regular, monospace" font-size="13" fill="#1D1D1F">null p: 0.00498</text><circle cx="592.0" cy="307.0" r="5" fill="#FF3B30"/><text x="608.0" y="312.0" font-family="Roboto Mono, ui-monospace, SFMono-Regular, monospace" font-size="13" fill="#1D1D1F">slope contrast: 1.00</text><circle cx="592.0" cy="339.0" r="5" fill="#8E8E93"/><text x="608.0" y="344.0" font-family="Roboto Mono, ui-monospace, SFMono-Regular, monospace" font-size="13" fill="#1D1D1F">model evidence: 100.0%</text><circle cx="592.0" cy="371.0" r="5" fill="#34C759"/><text x="608.0" y="376.0" font-family="Roboto Mono, ui-monospace, SFMono-Regular, monospace" font-size="13" fill="#1D1D1F">fit quality: 100%</text></svg>