<svg xmlns="http://www.w3.org/2000/svg" width="1320" height="620" viewBox="0 0 1320 620" font-family="Roboto, -apple-system, system-ui, sans-serif" role="img" aria-labelledby="kn-title kn-desc"><title id="kn-title">Knee detection: where the curve bends</title><desc id="kn-desc">Knee detection: where the curve bends. The method flags the knee at x = 0.342</desc><style>@media (prefers-color-scheme: dark){[fill="#FFFFFF"]{fill:#000;}[fill="#1D1D1F"]{fill:#F5F5F7;}[fill="#6E6E73"]{fill:#98989D;}[stroke="#E5E5EA"]{stroke:#2C2C2E;}}</style><rect width="1320" height="620" fill="#FFFFFF"/><text x="96" y="72" font-size="29" font-weight="700" fill="#1D1D1F">Knee detection: where the curve bends</text><text x="96" y="106" font-size="17" fill="#6E6E73">The method flags the knee at x = 0.342</text><line x1="96.0" y1="524.0" x2="860.0" y2="524.0" stroke="#E5E5EA" stroke-width="1"/><text x="82.0" y="529.0" text-anchor="end" font-family="Roboto Mono, ui-monospace, SFMono-Regular, monospace" font-size="13" fill="#6E6E73">0.00</text><line x1="96.0" y1="440.0" x2="860.0" y2="440.0" stroke="#E5E5EA" stroke-width="1"/><text x="82.0" y="445.0" text-anchor="end" font-family="Roboto Mono, ui-monospace, SFMono-Regular, monospace" font-size="13" fill="#6E6E73">0.25</text><line x1="96.0" y1="356.0" x2="860.0" y2="356.0" stroke="#E5E5EA" stroke-width="1"/><text x="82.0" y="361.0" text-anchor="end" font-family="Roboto Mono, ui-monospace, SFMono-Regular, monospace" font-size="13" fill="#6E6E73">0.50</text><line x1="96.0" y1="272.0" x2="860.0" y2="272.0" stroke="#E5E5EA" stroke-width="1"/><text x="82.0" y="277.0" text-anchor="end" font-family="Roboto Mono, ui-monospace, SFMono-Regular, monospace" font-size="13" fill="#6E6E73">0.75</text><line x1="96.0" y1="188.0" x2="860.0" y2="188.0" stroke="#E5E5EA" stroke-width="1"/><text x="82.0" y="193.0" text-anchor="end" font-family="Roboto Mono, ui-monospace, SFMono-Regular, monospace" font-size="13" fill="#6E6E73">1.00</text><line x1="96.0" y1="524.0" x2="860.0" y2="524.0" stroke="#1D1D1F" stroke-width="1.5"/><text x="96.0" y="550.0" text-anchor="middle" font-family="Roboto Mono, ui-monospace, SFMono-Regular, monospace" font-size="13" fill="#1D1D1F">0.00</text><text x="287.0" y="550.0" text-anchor="middle" font-family="Roboto Mono, ui-monospace, SFMono-Regular, monospace" font-size="13" fill="#1D1D1F">0.25</text><text x="478.0" y="550.0" text-anchor="middle" font-family="Roboto Mono, ui-monospace, SFMono-Regular, monospace" font-size="13" fill="#1D1D1F">0.50</text><text x="669.0" y="550.0" text-anchor="middle" font-family="Roboto Mono, ui-monospace, SFMono-Regular, monospace" font-size="13" fill="#1D1D1F">0.75</text><text x="860.0" y="550.0" text-anchor="middle" font-family="Roboto Mono, ui-monospace, SFMono-Regular, monospace" font-size="13" fill="#1D1D1F">1.00</text><text x="478.0" y="580.0" text-anchor="middle" font-size="15" fill="#1D1D1F">x (normalized)</text><text x="30" y="356.0" text-anchor="middle" font-size="15" fill="#1D1D1F" transform="rotate(-90 30 356.0)">y (scaled)</text><circle cx="96.0" cy="524.0" r="2.6" fill="#8E8E93" opacity="0.55"/><circle cx="105.7" cy="524.0" r="2.6" fill="#8E8E93" opacity="0.55"/><circle cx="115.3" cy="524.0" r="2.6" fill="#8E8E93" opacity="0.55"/><circle cx="125.0" cy="524.0" r="2.6" fill="#8E8E93" opacity="0.55"/><circle cx="134.7" cy="522.4" r="2.6" fill="#8E8E93" opacity="0.55"/><circle cx="144.4" cy="511.3" r="2.6" fill="#8E8E93" opacity="0.55"/><circle cx="154.0" cy="504.5" r="2.6" fill="#8E8E93" opacity="0.55"/><circle cx="163.7" cy="480.8" r="2.6" fill="#8E8E93" opacity="0.55"/><circle cx="173.4" cy="467.8" r="2.6" fill="#8E8E93" opacity="0.55"/><circle cx="183.0" cy="453.7" r="2.6" fill="#8E8E93" opacity="0.55"/><circle cx="192.7" cy="441.1" r="2.6" fill="#8E8E93" opacity="0.55"/><circle cx="202.4" cy="422.2" r="2.6" fill="#8E8E93" opacity="0.55"/><circle cx="212.1" cy="417.8" r="2.6" fill="#8E8E93" opacity="0.55"/><circle cx="221.7" cy="398.4" r="2.6" fill="#8E8E93" opacity="0.55"/><circle cx="231.4" cy="386.3" r="2.6" fill="#8E8E93" opacity="0.55"/><circle cx="241.1" cy="362.8" r="2.6" fill="#8E8E93" opacity="0.55"/><circle cx="250.7" cy="352.6" r="2.6" fill="#8E8E93" opacity="0.55"/><circle cx="260.4" cy="340.5" r="2.6" fill="#8E8E93" opacity="0.55"/><circle cx="270.1" cy="329.8" r="2.6" fill="#8E8E93" opacity="0.55"/><circle cx="279.7" cy="310.8" r="2.6" fill="#8E8E93" opacity="0.55"/><circle cx="289.4" cy="293.9" r="2.6" fill="#8E8E93" opacity="0.55"/><circle cx="299.1" cy="281.5" r="2.6" fill="#8E8E93" opacity="0.55"/><circle cx="308.8" cy="254.1" r="2.6" fill="#8E8E93" opacity="0.55"/><circle cx="318.4" cy="241.7" r="2.6" fill="#8E8E93" opacity="0.55"/><circle cx="328.1" cy="261.1" r="2.6" fill="#8E8E93" opacity="0.55"/><circle cx="337.8" cy="253.5" r="2.6" fill="#8E8E93" opacity="0.55"/><circle cx="347.4" cy="238.6" r="2.6" fill="#8E8E93" opacity="0.55"/><circle cx="357.1" cy="239.7" r="2.6" fill="#8E8E93" opacity="0.55"/><circle cx="366.8" cy="233.5" r="2.6" fill="#8E8E93" opacity="0.55"/><circle cx="376.5" cy="232.5" r="2.6" fill="#8E8E93" opacity="0.55"/><circle cx="386.1" cy="216.2" r="2.6" fill="#8E8E93" opacity="0.55"/><circle cx="395.8" cy="241.3" r="2.6" fill="#8E8E93" opacity="0.55"/><circle cx="405.5" cy="234.4" r="2.6" fill="#8E8E93" opacity="0.55"/><circle cx="415.1" cy="213.9" r="2.6" fill="#8E8E93" opacity="0.55"/><circle cx="424.8" cy="224.2" r="2.6" fill="#8E8E93" opacity="0.55"/><circle cx="434.5" cy="223.0" r="2.6" fill="#8E8E93" opacity="0.55"/><circle cx="444.2" cy="231.6" r="2.6" fill="#8E8E93" opacity="0.55"/><circle cx="453.8" cy="239.7" r="2.6" fill="#8E8E93" opacity="0.55"/><circle cx="463.5" cy="224.1" r="2.6" fill="#8E8E93" opacity="0.55"/><circle cx="473.2" cy="223.6" r="2.6" fill="#8E8E93" opacity="0.55"/><circle cx="482.8" cy="233.4" r="2.6" fill="#8E8E93" opacity="0.55"/><circle cx="492.5" cy="228.0" r="2.6" fill="#8E8E93" opacity="0.55"/><circle cx="502.2" cy="222.1" r="2.6" fill="#8E8E93" opacity="0.55"/><circle cx="511.8" cy="228.2" r="2.6" fill="#8E8E93" opacity="0.55"/><circle cx="521.5" cy="220.3" r="2.6" fill="#8E8E93" opacity="0.55"/><circle cx="531.2" cy="217.8" r="2.6" fill="#8E8E93" opacity="0.55"/><circle cx="540.9" cy="217.3" r="2.6" fill="#8E8E93" opacity="0.55"/><circle cx="550.5" cy="220.7" r="2.6" fill="#8E8E93" opacity="0.55"/><circle cx="560.2" cy="210.8" r="2.6" fill="#8E8E93" opacity="0.55"/><circle cx="569.9" cy="207.5" r="2.6" fill="#8E8E93" opacity="0.55"/><circle cx="579.5" cy="211.1" r="2.6" fill="#8E8E93" opacity="0.55"/><circle cx="589.2" cy="219.3" r="2.6" fill="#8E8E93" opacity="0.55"/><circle cx="598.9" cy="205.8" r="2.6" fill="#8E8E93" opacity="0.55"/><circle cx="608.6" cy="214.8" r="2.6" fill="#8E8E93" opacity="0.55"/><circle cx="618.2" cy="202.6" r="2.6" fill="#8E8E93" opacity="0.55"/><circle cx="627.9" cy="217.4" r="2.6" fill="#8E8E93" opacity="0.55"/><circle cx="637.6" cy="200.4" r="2.6" fill="#8E8E93" opacity="0.55"/><circle cx="647.2" cy="207.0" r="2.6" fill="#8E8E93" opacity="0.55"/><circle cx="656.9" cy="215.9" r="2.6" fill="#8E8E93" opacity="0.55"/><circle cx="666.6" cy="207.4" r="2.6" fill="#8E8E93" opacity="0.55"/><circle cx="676.3" cy="203.4" r="2.6" fill="#8E8E93" opacity="0.55"/><circle cx="685.9" cy="200.7" r="2.6" fill="#8E8E93" opacity="0.55"/><circle cx="695.6" cy="209.8" r="2.6" fill="#8E8E93" opacity="0.55"/><circle cx="705.3" cy="209.8" r="2.6" fill="#8E8E93" opacity="0.55"/><circle cx="714.9" cy="198.3" r="2.6" fill="#8E8E93" opacity="0.55"/><circle cx="724.6" cy="202.7" r="2.6" fill="#8E8E93" opacity="0.55"/><circle cx="734.3" cy="196.1" r="2.6" fill="#8E8E93" opacity="0.55"/><circle cx="743.9" cy="190.8" r="2.6" fill="#8E8E93" opacity="0.55"/><circle cx="753.6" cy="209.3" r="2.6" fill="#8E8E93" opacity="0.55"/><circle cx="763.3" cy="193.0" r="2.6" fill="#8E8E93" opacity="0.55"/><circle cx="773.0" cy="188.0" r="2.6" fill="#8E8E93" opacity="0.55"/><circle cx="782.6" cy="195.4" r="2.6" fill="#8E8E93" opacity="0.55"/><circle cx="792.3" cy="198.6" r="2.6" fill="#8E8E93" opacity="0.55"/><circle cx="802.0" cy="188.0" r="2.6" fill="#8E8E93" opacity="0.55"/><circle cx="811.6" cy="188.0" r="2.6" fill="#8E8E93" opacity="0.55"/><circle cx="821.3" cy="188.0" r="2.6" fill="#8E8E93" opacity="0.55"/><circle cx="831.0" cy="190.9" r="2.6" fill="#8E8E93" opacity="0.55"/><circle cx="840.7" cy="199.1" r="2.6" fill="#8E8E93" opacity="0.55"/><circle cx="850.3" cy="188.0" r="2.6" fill="#8E8E93" opacity="0.55"/><circle cx="860.0" cy="188.8" r="2.6" fill="#8E8E93" opacity="0.55"/><path d="M96,524 C97.6,524 102.4,524 105.7,523.9 C108.9,523.8 112.1,523.8 115.3,523.4 C118.6,523 121.8,522.6 125,521.5 C128.2,520.5 131.5,519.1 134.7,517.1 C137.9,515 141.1,512.4 144.4,509.1 C147.6,505.9 150.8,501.9 154,497.6 C157.2,493.4 160.5,488.4 163.7,483.6 C166.9,478.7 170.1,473.5 173.4,468.6 C176.6,463.7 179.8,458.8 183,454.1 C186.3,449.3 189.5,444.6 192.7,440 C195.9,435.4 199.2,431 202.4,426.5 C205.6,422 208.8,417.6 212.1,412.9 C215.3,408.3 218.5,403.5 221.7,398.5 C224.9,393.6 228.2,388.3 231.4,383.2 C234.6,378.1 237.8,372.9 241.1,368 C244.3,363 247.5,358.2 250.7,353.6 C254,348.9 257.2,344.5 260.4,340 C263.6,335.4 266.9,330.8 270.1,326 C273.3,321.1 276.5,316 279.7,310.8 C283,305.5 286.2,299.7 289.4,294.2 C292.6,288.8 295.9,283 299.1,278.1 C302.3,273.2 305.5,268.3 308.8,264.6 C312,260.9 315.2,258.2 318.4,256.1 C321.7,254 324.9,253.2 328.1,251.9 C331.3,250.6 334.5,249.7 337.8,248.3 C341,247 344.2,245.5 347.4,243.9 C350.7,242.3 353.9,240.4 357.1,238.8 C360.3,237.2 363.6,235.6 366.8,234.3 C370,233.1 373.2,232 376.5,231.3 C379.7,230.5 382.9,230.2 386.1,229.9 C389.4,229.6 392.6,229.8 395.8,229.4 C399,229.1 402.2,228.5 405.5,227.8 C408.7,227.1 411.9,225.8 415.1,225.4 C418.4,224.9 421.6,224.7 424.8,224.8 C428,225 431.3,225.7 434.5,226.4 C437.7,227.1 440.9,228.3 444.2,228.9 C447.4,229.5 450.6,230 453.8,230.1 C457,230.2 460.3,229.6 463.5,229.3 C466.7,229 469.9,228.6 473.2,228.3 C476.4,228.1 479.6,228.1 482.8,227.8 C486.1,227.6 489.3,227.4 492.5,227 C495.7,226.6 499,226.2 502.2,225.7 C505.4,225.1 508.6,224.4 511.8,223.8 C515.1,223.1 518.3,222.3 521.5,221.6 C524.7,220.9 528,220.3 531.2,219.6 C534.4,219 537.6,218.5 540.9,217.8 C544.1,217.1 547.3,216.4 550.5,215.7 C553.8,215 557,214.2 560.2,213.6 C563.4,213 566.6,212.3 569.9,212.1 C573.1,211.8 576.3,212 579.5,211.9 C582.8,211.9 586,211.9 589.2,211.8 C592.4,211.7 595.7,211.6 598.9,211.4 C602.1,211.1 605.3,210.7 608.6,210.3 C611.8,210 615,209.6 618.2,209.3 C621.5,209 624.7,208.8 627.9,208.6 C631.1,208.4 634.3,208.3 637.6,208.3 C640.8,208.2 644,208.3 647.2,208.4 C650.5,208.4 653.7,208.7 656.9,208.5 C660.1,208.3 663.4,207.8 666.6,207.4 C669.8,207 673,206.5 676.3,206.1 C679.5,205.8 682.7,205.6 685.9,205.5 C689.1,205.4 692.4,205.6 695.6,205.5 C698.8,205.4 702,205.3 705.3,204.8 C708.5,204.3 711.7,203.3 714.9,202.6 C718.2,201.8 721.4,201 724.6,200.3 C727.8,199.6 731.1,198.9 734.3,198.5 C737.5,198 740.7,197.9 743.9,197.7 C747.2,197.5 750.4,197.5 753.6,197.2 C756.8,196.8 760.1,196.3 763.3,195.8 C766.5,195.3 769.7,194.7 773,194.3 C776.2,194 779.4,193.9 782.6,193.6 C785.9,193.4 789.1,193.1 792.3,192.7 C795.5,192.3 798.8,191.7 802,191.2 C805.2,190.8 808.4,190.4 811.6,190.2 C814.9,190 818.1,190.1 821.3,190.3 C824.5,190.4 827.8,191 831,191.2 C834.2,191.5 837.4,191.7 840.7,191.7 C843.9,191.7 847.1,191.4 850.3,191.3 C853.6,191.2 858.4,191 860,190.9" fill="none" stroke="#007AFF" stroke-width="3" stroke-linecap="round" stroke-linejoin="round"/><rect x="357.1" y="182.0" width="29.0" height="342.0" fill="#FF3B30" fill-opacity="0.10"/><circle cx="357.1" cy="238.8" r="15" fill="#FF3B30" opacity="0.16"/><circle cx="357.1" cy="238.8" r="8" fill="#FFFFFF" stroke="#FF3B30" stroke-width="3"/><line x1="367.1" y1="228.8" x2="371.1" y2="212.0" stroke="#FF3B30" stroke-width="1.6"/><rect x="363.1" y="195.0" width="168" height="34" rx="17" fill="#FF3B30"/><text x="447.1" y="217.0" text-anchor="middle" font-family="Roboto Mono, ui-monospace, SFMono-Regular, monospace" font-size="15" font-weight="700" fill="#FFFFFF">Knee · x = 0.342</text><circle cx="946.0" cy="271.0" r="5" fill="#007AFF"/><text x="962.0" y="276.0" font-family="Roboto Mono, ui-monospace, SFMono-Regular, monospace" font-size="13" fill="#1D1D1F">detection probability: 98%</text><circle cx="946.0" cy="311.0" r="5" fill="#0051A8"/><text x="962.0" y="316.0" font-family="Roboto Mono, ui-monospace, SFMono-Regular, monospace" font-size="13" fill="#1D1D1F">null p: 0.00498</text><circle cx="946.0" cy="351.0" r="5" fill="#FF3B30"/><text x="962.0" y="356.0" font-family="Roboto Mono, ui-monospace, SFMono-Regular, monospace" font-size="13" fill="#1D1D1F">slope contrast: 100%</text><circle cx="946.0" cy="391.0" r="5" fill="#8E8E93"/><text x="962.0" y="396.0" font-family="Roboto Mono, ui-monospace, SFMono-Regular, monospace" font-size="13" fill="#1D1D1F">posterior probability: 100.0%</text><circle cx="946.0" cy="431.0" r="5" fill="#34C759"/><text x="962.0" y="436.0" font-family="Roboto Mono, ui-monospace, SFMono-Regular, monospace" font-size="13" fill="#1D1D1F">fit quality: 100%</text></svg>