<svg xmlns="http://www.w3.org/2000/svg" width="1000" height="560" viewBox="0 0 1000 560" font-family="Roboto, -apple-system, system-ui, sans-serif" role="img" aria-labelledby="rd-title rd-desc"><title id="rd-title">Regression under Gaussian noise: L as a geometric mean of heights</title><desc id="rd-desc">Scatter of synthetic regression data with the fitted line, and four small Gaussian conditional-density curves drawn at selected x locations, each dot marking the density's height at the actually observed y, the four heights this note's L is the geometric mean of.</desc><style>@media (prefers-color-scheme: dark){[fill="#FFFFFF"]{fill:#000;}[fill="#1D1D1F"]{fill:#F5F5F7;}[fill="#6E6E73"]{fill:#98989D;}[stroke="#E5E5EA"]{stroke:#2C2C2E;}}</style><rect width="1000" height="560" fill="#FFFFFF"/><text x="70.0" y="34" font-size="22" font-weight="700" fill="#1D1D1F">Regression under Gaussian noise: L as a geometric mean of heights</text><text x="70.0" y="58" font-size="14.5" fill="#6E6E73">y = f(x;θ) + ε, ε ~ N(0,σ²); each bell is p(·|x;θ), the dot its height at the observed y</text><line x1="70.0" y1="460.0" x2="930.0" y2="460.0" stroke="#E5E5EA" stroke-width="1"/><text x="60.0" y="464.0" text-anchor="end" font-family="Roboto Mono, ui-monospace, SFMono-Regular, monospace" font-size="12" fill="#6E6E73">0</text><line x1="70.0" y1="377.8" x2="930.0" y2="377.8" stroke="#E5E5EA" stroke-width="1"/><text x="60.0" y="381.8" text-anchor="end" font-family="Roboto Mono, ui-monospace, SFMono-Regular, monospace" font-size="12" fill="#6E6E73">2</text><line x1="70.0" y1="295.6" x2="930.0" y2="295.6" stroke="#E5E5EA" stroke-width="1"/><text x="60.0" y="299.6" text-anchor="end" font-family="Roboto Mono, ui-monospace, SFMono-Regular, monospace" font-size="12" fill="#6E6E73">4</text><line x1="70.0" y1="213.3" x2="930.0" y2="213.3" stroke="#E5E5EA" stroke-width="1"/><text x="60.0" y="217.3" text-anchor="end" font-family="Roboto Mono, ui-monospace, SFMono-Regular, monospace" font-size="12" fill="#6E6E73">6</text><line x1="70.0" y1="131.1" x2="930.0" y2="131.1" stroke="#E5E5EA" stroke-width="1"/><text x="60.0" y="135.1" text-anchor="end" font-family="Roboto Mono, ui-monospace, SFMono-Regular, monospace" font-size="12" fill="#6E6E73">8</text><text x="70.0" y="480.0" text-anchor="middle" font-family="Roboto Mono, ui-monospace, SFMono-Regular, monospace" font-size="12" fill="#1D1D1F">0</text><text x="242.0" y="480.0" text-anchor="middle" font-family="Roboto Mono, ui-monospace, SFMono-Regular, monospace" font-size="12" fill="#1D1D1F">2</text><text x="414.0" y="480.0" text-anchor="middle" font-family="Roboto Mono, ui-monospace, SFMono-Regular, monospace" font-size="12" fill="#1D1D1F">4</text><text x="586.0" y="480.0" text-anchor="middle" font-family="Roboto Mono, ui-monospace, SFMono-Regular, monospace" font-size="12" fill="#1D1D1F">6</text><text x="758.0" y="480.0" text-anchor="middle" font-family="Roboto Mono, ui-monospace, SFMono-Regular, monospace" font-size="12" fill="#1D1D1F">8</text><text x="930.0" y="480.0" text-anchor="middle" font-family="Roboto Mono, ui-monospace, SFMono-Regular, monospace" font-size="12" fill="#1D1D1F">10</text><line x1="70.0" y1="460.0" x2="930.0" y2="460.0" stroke="#1D1D1F" stroke-width="1.5"/><text x="500.0" y="506.0" text-anchor="middle" font-size="14" fill="#1D1D1F">x</text><text x="26" y="275.0" text-anchor="middle" font-size="14" fill="#1D1D1F" transform="rotate(-90 26 275.0)">y</text><circle cx="70.0" cy="387.2" r="3.6" fill="#1D1D1F" opacity="0.9"/><circle cx="99.7" cy="351.8" r="3.6" fill="#1D1D1F" opacity="0.9"/><circle cx="129.3" cy="372.0" r="3.6" fill="#1D1D1F" opacity="0.9"/><circle cx="159.0" cy="368.2" r="3.6" fill="#1D1D1F" opacity="0.9"/><circle cx="188.6" cy="383.8" r="3.6" fill="#1D1D1F" opacity="0.9"/><circle cx="218.3" cy="350.2" r="3.6" fill="#1D1D1F" opacity="0.9"/><circle cx="247.9" cy="294.1" r="3.6" fill="#1D1D1F" opacity="0.9"/><circle cx="277.6" cy="312.5" r="3.6" fill="#1D1D1F" opacity="0.9"/><circle cx="307.2" cy="282.7" r="3.6" fill="#1D1D1F" opacity="0.9"/><circle cx="336.9" cy="304.8" r="3.6" fill="#1D1D1F" opacity="0.9"/><circle cx="366.6" cy="292.3" r="3.6" fill="#1D1D1F" opacity="0.9"/><circle cx="396.2" cy="293.0" r="3.6" fill="#1D1D1F" opacity="0.9"/><circle cx="425.9" cy="354.4" r="3.6" fill="#1D1D1F" opacity="0.9"/><circle cx="455.5" cy="254.0" r="3.6" fill="#1D1D1F" opacity="0.9"/><circle cx="485.2" cy="259.8" r="3.6" fill="#1D1D1F" opacity="0.9"/><circle cx="514.8" cy="253.0" r="3.6" fill="#1D1D1F" opacity="0.9"/><circle cx="544.5" cy="326.9" r="3.6" fill="#1D1D1F" opacity="0.9"/><circle cx="574.1" cy="321.8" r="3.6" fill="#1D1D1F" opacity="0.9"/><circle cx="603.8" cy="283.1" r="3.6" fill="#1D1D1F" opacity="0.9"/><circle cx="633.4" cy="260.4" r="3.6" fill="#1D1D1F" opacity="0.9"/><circle cx="663.1" cy="224.7" r="3.6" fill="#1D1D1F" opacity="0.9"/><circle cx="692.8" cy="230.6" r="3.6" fill="#1D1D1F" opacity="0.9"/><circle cx="722.4" cy="202.6" r="3.6" fill="#1D1D1F" opacity="0.9"/><circle cx="752.1" cy="238.5" r="3.6" fill="#1D1D1F" opacity="0.9"/><circle cx="781.7" cy="196.2" r="3.6" fill="#1D1D1F" opacity="0.9"/><circle cx="811.4" cy="186.0" r="3.6" fill="#1D1D1F" opacity="0.9"/><circle cx="841.0" cy="217.9" r="3.6" fill="#1D1D1F" opacity="0.9"/><circle cx="870.7" cy="122.8" r="3.6" fill="#1D1D1F" opacity="0.9"/><circle cx="900.3" cy="158.7" r="3.6" fill="#1D1D1F" opacity="0.9"/><circle cx="930.0" cy="127.9" r="3.6" fill="#1D1D1F" opacity="0.9"/><line x1="70.0" y1="377.8" x2="930.0" y2="172.2" stroke="#007AFF" stroke-width="3" stroke-linecap="round"/><path d="M173.4,471.5 L173.4,467.6 L173.5,463.6 L173.6,459.7 L173.8,455.7 L174.0,451.8 L174.2,447.8 L174.5,443.9 L174.9,439.9 L175.4,436.0 L175.9,432.0 L176.6,428.1 L177.4,424.2 L178.3,420.2 L179.4,416.3 L180.6,412.3 L181.9,408.4 L183.4,404.4 L184.9,400.5 L186.6,396.5 L188.3,392.6 L190.0,388.6 L191.7,384.7 L193.3,380.7 L194.9,376.8 L196.3,372.8 L197.5,368.9 L198.5,365.0 L199.2,361.0 L199.6,357.1 L199.8,353.1 L199.6,349.2 L199.2,345.2 L198.5,341.3 L197.5,337.3 L196.3,333.4 L194.9,329.4 L193.3,325.5 L191.7,321.5 L190.0,317.6 L188.3,313.6 L186.6,309.7 L184.9,305.8 L183.4,301.8 L181.9,297.9 L180.6,293.9 L179.4,290.0 L178.3,286.0 L177.4,282.1 L176.6,278.1 L175.9,274.2 L175.4,270.2 L174.9,266.3 L174.5,262.3 L174.2,258.4 L174.0,254.4 L173.8,250.5 L173.6,246.6 L173.5,242.6 L173.4,238.7 L173.4,234.7" fill="none" stroke="#FF3B30" stroke-width="2" opacity="0.85"/><line x1="173.2" y1="471.5" x2="173.2" y2="234.7" stroke="#FF3B30" stroke-width="1" stroke-dasharray="2 3" opacity="0.4"/><circle cx="197.7" cy="368.2" r="5.5" fill="#FF3B30" stroke="#1D1D1F" stroke-width="1.3"/><path d="M397.0,418.1 L397.0,414.1 L397.1,410.2 L397.2,406.2 L397.4,402.3 L397.6,398.3 L397.8,394.4 L398.1,390.4 L398.5,386.5 L399.0,382.5 L399.5,378.6 L400.2,374.7 L401.0,370.7 L401.9,366.8 L403.0,362.8 L404.2,358.9 L405.5,354.9 L407.0,351.0 L408.5,347.0 L410.2,343.1 L411.9,339.1 L413.6,335.2 L415.3,331.2 L416.9,327.3 L418.5,323.3 L419.9,319.4 L421.1,315.5 L422.1,311.5 L422.8,307.6 L423.2,303.6 L423.4,299.7 L423.2,295.7 L422.8,291.8 L422.1,287.8 L421.1,283.9 L419.9,279.9 L418.5,276.0 L416.9,272.0 L415.3,268.1 L413.6,264.1 L411.9,260.2 L410.2,256.3 L408.5,252.3 L407.0,248.4 L405.5,244.4 L404.2,240.5 L403.0,236.5 L401.9,232.6 L401.0,228.6 L400.2,224.7 L399.5,220.7 L399.0,216.8 L398.5,212.8 L398.1,208.9 L397.8,204.9 L397.6,201.0 L397.4,197.1 L397.2,193.1 L397.1,189.2 L397.0,185.2 L397.0,181.3" fill="none" stroke="#FF3B30" stroke-width="2" opacity="0.85"/><line x1="396.8" y1="418.1" x2="396.8" y2="181.3" stroke="#FF3B30" stroke-width="1" stroke-dasharray="2 3" opacity="0.4"/><circle cx="423.0" cy="293.0" r="5.5" fill="#FF3B30" stroke="#1D1D1F" stroke-width="1.3"/><path d="M629.2,362.6 L629.2,358.6 L629.3,354.7 L629.4,350.7 L629.6,346.8 L629.8,342.8 L630.0,338.9 L630.3,334.9 L630.7,331.0 L631.2,327.0 L631.7,323.1 L632.4,319.2 L633.2,315.2 L634.1,311.3 L635.2,307.3 L636.4,303.4 L637.7,299.4 L639.2,295.5 L640.7,291.5 L642.4,287.6 L644.1,283.6 L645.8,279.7 L647.5,275.7 L649.1,271.8 L650.7,267.8 L652.1,263.9 L653.3,260.0 L654.3,256.0 L655.0,252.1 L655.4,248.1 L655.6,244.2 L655.4,240.2 L655.0,236.3 L654.3,232.3 L653.3,228.4 L652.1,224.4 L650.7,220.5 L649.1,216.5 L647.5,212.6 L645.8,208.6 L644.1,204.7 L642.4,200.8 L640.7,196.8 L639.2,192.9 L637.7,188.9 L636.4,185.0 L635.2,181.0 L634.1,177.1 L633.2,173.1 L632.4,169.2 L631.7,165.2 L631.2,161.3 L630.7,157.3 L630.3,153.4 L630.0,149.4 L629.8,145.5 L629.6,141.6 L629.4,137.6 L629.3,133.7 L629.2,129.7 L629.2,125.8" fill="none" stroke="#FF3B30" stroke-width="2" opacity="0.85"/><line x1="629.0" y1="362.6" x2="629.0" y2="125.8" stroke="#FF3B30" stroke-width="1" stroke-dasharray="2 3" opacity="0.4"/><circle cx="653.1" cy="260.4" r="5.5" fill="#FF3B30" stroke="#1D1D1F" stroke-width="1.3"/><path d="M844.2,311.2 L844.2,307.2 L844.3,303.3 L844.4,299.3 L844.6,295.4 L844.8,291.4 L845.0,287.5 L845.3,283.6 L845.7,279.6 L846.2,275.7 L846.7,271.7 L847.4,267.8 L848.2,263.8 L849.1,259.9 L850.2,255.9 L851.4,252.0 L852.7,248.0 L854.2,244.1 L855.7,240.1 L857.4,236.2 L859.1,232.2 L860.8,228.3 L862.5,224.4 L864.1,220.4 L865.7,216.5 L867.1,212.5 L868.3,208.6 L869.3,204.6 L870.0,200.7 L870.4,196.7 L870.6,192.8 L870.4,188.8 L870.0,184.9 L869.3,180.9 L868.3,177.0 L867.1,173.0 L865.7,169.1 L864.1,165.2 L862.5,161.2 L860.8,157.3 L859.1,153.3 L857.4,149.4 L855.7,145.4 L854.2,141.5 L852.7,137.5 L851.4,133.6 L850.2,129.6 L849.1,125.7 L848.2,121.7 L847.4,117.8 L846.7,113.8 L846.2,109.9 L845.7,106.0 L845.3,102.0 L845.0,98.1 L844.8,94.1 L844.6,90.2 L844.4,86.2 L844.3,82.3 L844.2,78.3 L844.2,74.4" fill="none" stroke="#FF3B30" stroke-width="2" opacity="0.85"/><line x1="844.0" y1="311.2" x2="844.0" y2="74.4" stroke="#FF3B30" stroke-width="1" stroke-dasharray="2 3" opacity="0.4"/><circle cx="865.1" cy="217.9" r="5.5" fill="#FF3B30" stroke="#1D1D1F" stroke-width="1.3"/><rect x="710.0" y="92.0" width="220" height="58" rx="8" fill="#FFFFFF" stroke="#E5E5EA" stroke-width="1"/><line x1="720.0" y1="108.0" x2="742.0" y2="108.0" stroke="#007AFF" stroke-width="3"/><text x="750.0" y="112.0" font-size="13" fill="#1D1D1F">f(x;θ)</text><line x1="720.0" y1="132.0" x2="742.0" y2="132.0" stroke="#FF3B30" stroke-width="2"/><text x="750.0" y="136.0" font-size="13" fill="#1D1D1F">p(y|x;θ)</text><text x="70.0" y="540.0" font-size="14" fill="#1D1D1F">L = geometric mean of the four marked heights</text></svg>